<svg width="505" height="331" viewBox="0 0 505 331" fill="none" xmlns="http://www.w3.org/2000/svg">
<path d="M176.913 193.234C153.643 193.269 142.521 164.647 159.709 148.961L262.686 54.9859C279.036 40.0649 305.325 51.6717 305.315 73.8068L305.271 167.626C305.264 181.67 293.889 193.057 279.845 193.078L176.913 193.234Z" fill="#3B82F6"/>
<path d="M327.617 3.24222e-05C350.887 -0.0351596 362.009 28.5871 344.82 44.273L241.844 138.248C225.494 153.169 199.205 141.562 199.215 119.427L199.259 25.6077C199.266 11.564 210.641 0.176941 224.684 0.155702L327.617 3.24222e-05Z" fill="#E62C5A"/>
<path d="M262.684 54.9879C279.034 40.0671 305.322 51.6735 305.312 73.8082L305.308 80.3326L241.843 138.251C225.493 153.171 199.205 141.565 199.215 119.43L199.218 112.906L262.684 54.9879Z" fill="#1D4ED8"/>
<path d="M38.1168 307.98C23.823 307.98 10.6372 303.327 3.76736 292.468L14.183 280.279C19.1692 289.587 29.9172 293.687 38.7816 293.687C45.2083 293.687 49.8621 291.692 49.8621 286.595C49.8621 280.833 44.9867 278.95 35.1251 276.955L27.9228 275.404C16.3991 273.077 5.54023 267.98 5.54023 253.908C5.54023 239.392 18.0611 231.747 33.1306 231.747C47.092 231.747 58.2832 237.065 64.4883 245.93L53.7402 258.007C48.8648 250.251 40.2221 246.041 31.6901 246.041C26.0391 246.041 21.9393 248.478 21.9393 252.8C21.9393 258.229 26.7039 260.224 34.4602 261.996L42.8814 263.991C56.732 267.204 66.1503 272.855 66.1503 286.152C66.1503 300.335 54.1834 307.98 38.1168 307.98ZM89.4089 246.151H73.5639V232.633H89.4089V246.151ZM89.4089 306.872H73.5639V252.578H89.4089V306.872ZM117.569 308.091C104.383 308.091 96.0728 297.786 96.0728 279.725C96.0728 261.775 104.383 251.47 116.904 251.47C128.206 251.47 132.638 259.337 134.19 268.091V232.633H150.035V306.872H134.19V291.581C132.749 300.335 128.871 308.091 117.569 308.091ZM112.139 279.725C112.139 290.141 116.682 295.681 123.885 295.681C130.533 295.681 134.19 291.581 134.19 282.717V276.844C134.19 267.98 130.422 263.769 123.663 263.769C116.682 263.769 112.139 269.42 112.139 279.725ZM184.777 307.98C167.492 307.98 156.965 296.457 156.965 279.725C156.965 262.994 167.492 251.47 183.447 251.47C200.733 251.47 209.376 262.994 209.376 277.177C209.376 279.504 209.154 282.606 208.822 283.825H171.813C172.81 291.47 177.907 295.127 184.999 295.127C192.644 295.127 196.744 291.803 198.738 287.149L208.378 296.789C204.279 302.662 196.966 307.98 184.777 307.98ZM183.558 263.659C176.799 263.659 172.589 267.426 171.813 274.739H195.082C194.528 267.537 190.65 263.659 183.558 263.659ZM267.455 328.701C254.601 328.59 247.177 320.058 247.731 307.537C228.341 305.321 215.376 289.476 215.376 269.642C215.376 248.257 230.557 231.525 252.718 231.525C274.879 231.525 290.059 248.257 290.059 269.642C290.059 289.365 277.316 304.989 258.147 307.537C258.812 313.188 262.358 315.404 266.457 315.404C273.992 315.404 279.311 309.199 282.081 303.659L287.621 319.504C283.854 323.715 277.538 328.701 267.455 328.701ZM252.718 292.135C266.457 292.135 273.327 282.384 273.327 269.642C273.327 257.01 266.457 247.149 252.718 247.149C239.089 247.149 232.108 257.01 232.108 269.642C232.108 282.384 239.089 292.135 252.718 292.135ZM314.554 307.98C304.25 307.98 297.823 301.664 297.823 290.473V252.578H313.668V284.933C313.668 291.581 315.441 295.681 322.754 295.681C330.289 295.681 332.615 291.47 332.615 282.606V252.578H348.461V306.872H332.615V291.692C330.732 300.335 325.524 307.98 314.554 307.98ZM383.113 307.98C365.827 307.98 355.301 296.457 355.301 279.725C355.301 262.994 365.827 251.47 381.783 251.47C399.069 251.47 407.712 262.994 407.712 277.177C407.712 279.504 407.49 282.606 407.158 283.825H370.149C371.146 291.47 376.243 295.127 383.335 295.127C390.98 295.127 395.08 291.803 397.074 287.149L406.714 296.789C402.615 302.662 395.301 307.98 383.113 307.98ZM381.894 263.659C375.135 263.659 370.924 267.426 370.149 274.739H393.418C392.864 267.537 388.986 263.659 381.894 263.659ZM438.231 307.98C426.154 307.98 415.406 303.548 410.752 297.011L418.065 286.263C422.608 291.138 430.475 295.903 438.675 295.903C442.996 295.903 445.544 294.573 445.544 291.692C445.544 288.811 442.442 287.703 436.68 286.263L429.367 284.49C419.616 281.941 412.525 278.063 412.525 268.534C412.525 257.897 421.167 251.581 434.464 251.581C446.209 251.581 454.741 256.678 458.509 261.442L451.417 272.08C446.098 266.539 439.45 263.548 433.134 263.548C429.256 263.548 426.929 264.988 426.929 267.647C426.929 270.528 429.256 271.636 436.458 273.631L442.553 275.293C454.52 278.506 459.727 283.16 459.727 291.47C459.727 301.997 450.863 307.98 438.231 307.98ZM486.715 307.98C474.748 307.98 469.097 300.889 469.097 290.806V264.656H461.009V252.578H469.097V246.151L484.942 237.841V252.578H500.012V264.656H484.942V287.925C484.942 292.357 487.158 293.908 490.261 293.908C493.696 293.908 496.688 291.138 498.35 288.146L502.893 301.11C500.566 304.102 495.026 307.98 486.715 307.98Z" fill="#0A0A0A"/>
</svg>
