<svg width="1920" height="1080" viewBox="0 0 1920 1080" fill="none" xmlns="http://www.w3.org/2000/svg">
<rect width="1920" height="1080" fill="white"/>
<path d="M589.339 607.447C573.095 607.472 565.331 587.491 577.33 576.541L649.217 510.938C660.63 500.522 678.982 508.624 678.975 524.076L678.945 589.571C678.94 599.374 670.999 607.324 661.195 607.338L589.339 607.447Z" fill="#3B82F6"/>
<path d="M694.544 472.553C710.789 472.528 718.553 492.509 706.554 503.459L634.667 569.062C623.253 579.478 604.901 571.376 604.908 555.923L604.939 490.429C604.944 480.625 612.884 472.676 622.688 472.661L694.544 472.553Z" fill="#E62C5A"/>
<path fill-rule="evenodd" clip-rule="evenodd" d="M649.216 510.939C660.63 500.523 678.981 508.625 678.974 524.077L678.971 528.629L634.667 569.062C623.253 579.478 604.901 571.376 604.908 555.924L604.91 551.371L649.216 510.939Z" fill="#1D4ED8"/>
<path d="M797.925 585.164C781.052 585.164 765.487 579.671 757.378 566.853L769.673 552.465C775.559 563.452 788.246 568.291 798.71 568.291C806.296 568.291 811.79 565.937 811.79 559.92C811.79 553.119 806.035 550.895 794.394 548.541L785.892 546.71C772.289 543.963 759.471 537.946 759.471 521.335C759.471 504.2 774.251 495.175 792.039 495.175C808.52 495.175 821.731 501.453 829.055 511.917L816.368 526.174C810.613 517.018 800.411 512.048 790.339 512.048C783.668 512.048 778.829 514.926 778.829 520.027C778.829 526.436 784.453 528.79 793.609 530.883L803.55 533.237C819.9 537.031 831.017 543.701 831.017 559.397C831.017 576.139 816.891 585.164 797.925 585.164ZM858.473 512.179H839.769V496.221H858.473V512.179ZM858.473 583.856H839.769V519.765H858.473V583.856ZM891.714 585.295C876.149 585.295 866.339 573.131 866.339 551.811C866.339 530.621 876.149 518.457 890.929 518.457C904.271 518.457 909.503 527.744 911.334 538.077V496.221H930.038V583.856H911.334V565.806C909.633 576.139 905.055 585.295 891.714 585.295ZM885.305 551.811C885.305 564.106 890.668 570.646 899.17 570.646C907.017 570.646 911.334 565.806 911.334 555.342V548.41C911.334 537.946 906.887 532.976 898.908 532.976C890.668 532.976 885.305 539.647 885.305 551.811ZM971.049 585.164C950.645 585.164 938.219 571.561 938.219 551.811C938.219 532.06 950.645 518.457 969.48 518.457C989.884 518.457 1000.09 532.06 1000.09 548.802C1000.09 551.549 999.825 555.212 999.433 556.65H955.746C956.923 565.675 962.94 569.992 971.311 569.992C980.336 569.992 985.176 566.068 987.53 560.574L998.91 571.954C994.07 578.886 985.437 585.164 971.049 585.164ZM969.611 532.845C961.632 532.845 956.662 537.292 955.746 545.925H983.214C982.56 537.423 977.982 532.845 969.611 532.845ZM1068.65 609.624C1053.47 609.493 1044.71 599.421 1045.36 584.641C1022.47 582.025 1007.17 563.321 1007.17 539.908C1007.17 514.664 1025.09 494.913 1051.25 494.913C1077.41 494.913 1095.33 514.664 1095.33 539.908C1095.33 563.19 1080.29 581.633 1057.66 584.641C1058.44 591.312 1062.63 593.928 1067.47 593.928C1076.36 593.928 1082.64 586.603 1085.91 580.063L1092.45 598.767C1088 603.738 1080.55 609.624 1068.65 609.624ZM1051.25 566.46C1067.47 566.46 1075.58 554.95 1075.58 539.908C1075.58 524.997 1067.47 513.356 1051.25 513.356C1035.16 513.356 1026.92 524.997 1026.92 539.908C1026.92 554.95 1035.16 566.46 1051.25 566.46ZM1124.24 585.164C1112.08 585.164 1104.49 577.709 1104.49 564.498V519.765H1123.2V557.958C1123.2 565.806 1125.29 570.646 1133.92 570.646C1142.82 570.646 1145.56 565.675 1145.56 555.212V519.765H1164.27V583.856H1145.56V565.937C1143.34 576.139 1137.19 585.164 1124.24 585.164ZM1205.17 585.164C1184.77 585.164 1172.34 571.561 1172.34 551.811C1172.34 532.06 1184.77 518.457 1203.6 518.457C1224.01 518.457 1234.21 532.06 1234.21 548.802C1234.21 551.549 1233.95 555.212 1233.56 556.65H1189.87C1191.05 565.675 1197.06 569.992 1205.44 569.992C1214.46 569.992 1219.3 566.068 1221.65 560.574L1233.03 571.954C1228.19 578.886 1219.56 585.164 1205.17 585.164ZM1203.73 532.845C1195.76 532.845 1190.79 537.292 1189.87 545.925H1217.34C1216.68 537.423 1212.11 532.845 1203.73 532.845ZM1270.24 585.164C1255.98 585.164 1243.29 579.932 1237.8 572.215L1246.43 559.528C1251.8 565.283 1261.08 570.907 1270.76 570.907C1275.86 570.907 1278.87 569.338 1278.87 565.937C1278.87 562.536 1275.21 561.228 1268.41 559.528L1259.77 557.435C1248.26 554.427 1239.89 549.849 1239.89 538.6C1239.89 526.043 1250.09 518.588 1265.79 518.588C1279.66 518.588 1289.73 524.605 1294.17 530.229L1285.8 542.786C1279.52 536.246 1271.68 532.714 1264.22 532.714C1259.64 532.714 1256.9 534.415 1256.9 537.554C1256.9 540.955 1259.64 542.263 1268.15 544.617L1275.34 546.579C1289.47 550.372 1295.61 555.866 1295.61 565.675C1295.61 578.101 1285.15 585.164 1270.24 585.164ZM1327.47 585.164C1313.34 585.164 1306.67 576.793 1306.67 564.891V534.022H1297.13V519.765H1306.67V512.179L1325.38 502.369V519.765H1343.17V534.022H1325.38V561.49C1325.38 566.722 1327.99 568.553 1331.66 568.553C1335.71 568.553 1339.24 565.283 1341.2 561.751L1346.57 577.055C1343.82 580.586 1337.28 585.164 1327.47 585.164Z" fill="black"/>
</svg>
