<svg width="637" height="418" viewBox="0 0 637 418" fill="none" xmlns="http://www.w3.org/2000/svg">
<path d="M223.364 243.97C193.984 244.014 179.942 207.877 201.643 188.072L331.657 69.423C352.3 50.5844 385.492 65.2387 385.479 93.1856L385.423 211.638C385.415 229.369 371.053 243.746 353.322 243.773L223.364 243.97Z" fill="#3B82F6"/>
<path d="M413.637 4.0935e-05C443.016 -0.0443912 457.058 36.0929 435.357 55.8973L305.343 174.547C284.7 193.385 251.508 178.731 251.522 150.784L251.577 32.3313C251.585 14.6003 265.947 0.223398 283.678 0.196583L413.637 4.0935e-05Z" fill="#E62C5A"/>
<path fill-rule="evenodd" clip-rule="evenodd" d="M331.655 69.4255C352.298 50.5877 385.488 65.2419 385.475 93.1884L385.471 101.425L305.341 174.551C284.699 193.389 251.508 178.735 251.521 150.788L251.524 142.55L331.655 69.4255Z" fill="#1D4ED8"/>
<path d="M48.1247 388.28C30.078 388.28 13.4302 382.404 4.75652 368.694L17.9069 353.305C24.2023 365.057 37.7723 370.233 48.9641 370.233C57.0782 370.233 62.9539 367.715 62.9539 361.279C62.9539 354.005 56.7984 351.626 44.3475 349.108L35.2542 347.15C20.7048 344.212 6.99488 337.777 6.99488 320.01C6.99488 301.683 22.8033 292.03 41.8294 292.03C59.4564 292.03 73.5861 298.745 81.4204 309.937L67.8503 325.186C61.6948 315.393 50.7828 310.077 40.0107 310.077C32.8759 310.077 27.6997 313.155 27.6997 318.611C27.6997 325.466 33.7153 327.984 43.5081 330.222L54.1403 332.74C71.6275 336.797 83.5188 343.932 83.5188 360.72C83.5188 378.627 68.4099 388.28 48.1247 388.28ZM112.884 310.217H92.8788V293.149H112.884V310.217ZM112.884 386.881H92.8788V318.331H112.884V386.881ZM148.438 388.42C131.79 388.42 121.298 375.409 121.298 352.606C121.298 329.942 131.79 316.932 147.598 316.932C161.868 316.932 167.464 326.865 169.422 337.917V293.149H189.428V386.881H169.422V367.575C167.604 378.627 162.707 388.42 148.438 388.42ZM141.583 352.606C141.583 365.756 147.319 372.751 156.412 372.751C164.806 372.751 169.422 367.575 169.422 356.383V348.968C169.422 337.777 164.666 332.461 156.132 332.461C147.319 332.461 141.583 339.595 141.583 352.606ZM233.292 388.28C211.468 388.28 198.178 373.73 198.178 352.606C198.178 331.481 211.468 316.932 231.613 316.932C253.437 316.932 264.349 331.481 264.349 349.388C264.349 352.326 264.07 356.243 263.65 357.782H216.924C218.183 367.435 224.619 372.052 233.572 372.052C243.225 372.052 248.401 367.855 250.919 361.979L263.09 374.15C257.914 381.565 248.681 388.28 233.292 388.28ZM231.753 332.321C223.22 332.321 217.903 337.077 216.924 346.31H246.303C245.603 337.217 240.707 332.321 231.753 332.321ZM337.678 414.44C321.45 414.301 312.076 403.528 312.776 387.72C288.294 384.922 271.926 364.917 271.926 339.875C271.926 312.875 291.092 291.75 319.071 291.75C347.051 291.75 366.217 312.875 366.217 339.875C366.217 364.777 350.128 384.502 325.926 387.72C326.766 394.855 331.242 397.653 336.419 397.653C345.932 397.653 352.647 389.819 356.144 382.824L363.139 402.829C358.382 408.145 350.408 414.44 337.678 414.44ZM319.071 368.274C336.419 368.274 345.092 355.963 345.092 339.875C345.092 323.927 336.419 311.476 319.071 311.476C301.864 311.476 293.05 323.927 293.05 339.875C293.05 355.963 301.864 368.274 319.071 368.274ZM397.144 388.28C384.133 388.28 376.019 380.305 376.019 366.176V318.331H396.025V359.181C396.025 367.575 398.263 372.751 407.496 372.751C417.009 372.751 419.947 367.435 419.947 356.243V318.331H439.953V386.881H419.947V367.715C417.569 378.627 410.994 388.28 397.144 388.28ZM483.703 388.28C461.879 388.28 448.589 373.73 448.589 352.606C448.589 331.481 461.879 316.932 482.025 316.932C503.849 316.932 514.761 331.481 514.761 349.388C514.761 352.326 514.481 356.243 514.061 357.782H467.335C468.594 367.435 475.03 372.052 483.983 372.052C493.636 372.052 498.812 367.855 501.33 361.979L513.501 374.15C508.325 381.565 499.092 388.28 483.703 388.28ZM482.164 332.321C473.631 332.321 468.315 337.077 467.335 346.31H496.714C496.014 337.217 491.118 332.321 482.164 332.321ZM553.294 388.28C538.045 388.28 524.475 382.684 518.599 374.43L527.832 360.86C533.568 367.015 543.501 373.031 553.853 373.031C559.309 373.031 562.527 371.352 562.527 367.715C562.527 364.077 558.61 362.678 551.335 360.86L542.102 358.621C529.791 355.404 520.837 350.507 520.837 338.476C520.837 325.046 531.749 317.072 548.537 317.072C563.366 317.072 574.138 323.507 578.895 329.523L569.941 342.953C563.226 335.958 554.832 332.181 546.858 332.181C541.962 332.181 539.024 333.999 539.024 337.357C539.024 340.994 541.962 342.393 551.055 344.911L558.75 347.01C573.859 351.067 580.434 356.943 580.434 367.435C580.434 380.725 569.242 388.28 553.294 388.28ZM614.507 388.28C599.399 388.28 592.264 379.326 592.264 366.596V333.58H582.051V318.331H592.264V310.217L612.269 299.725V318.331H631.295V333.58H612.269V362.958C612.269 368.554 615.067 370.513 618.984 370.513C623.321 370.513 627.098 367.015 629.197 363.238L634.932 379.606C631.995 383.383 625 388.28 614.507 388.28Z" fill="#0A0A0A"/>
</svg>
