<svg width="1920" height="1080" viewBox="0 0 1920 1080" fill="none" xmlns="http://www.w3.org/2000/svg">
<rect width="1920" height="1080" fill="white"/>
<path d="M864.919 575.228C835.557 575.272 821.523 539.156 843.211 519.363L973.15 400.783C993.781 381.955 1026.95 396.601 1026.94 424.532L1026.88 542.915C1026.88 560.636 1012.52 575.005 994.802 575.031L864.919 575.228Z" fill="#3B82F6"/>
<path d="M1055.08 331.4C1084.44 331.356 1098.48 367.472 1076.79 387.265L946.851 505.845C926.22 524.673 893.048 510.027 893.061 482.097L893.116 363.713C893.124 345.992 907.478 331.624 925.198 331.597L1055.08 331.4Z" fill="#E62C5A"/>
<path fill-rule="evenodd" clip-rule="evenodd" d="M973.147 400.785C993.778 381.959 1026.95 396.604 1026.94 424.534L1026.93 432.766L946.849 505.85C926.218 524.677 893.047 510.031 893.06 482.101L893.063 473.867L973.147 400.785Z" fill="#1D4ED8"/>
<path d="M689.782 719.454C671.746 719.454 655.108 713.582 646.439 699.88L659.582 684.5C665.874 696.244 679.436 701.418 690.621 701.418C698.73 701.418 704.603 698.901 704.603 692.469C704.603 685.199 698.451 682.822 686.007 680.305L676.919 678.348C662.378 675.412 648.676 668.98 648.676 651.224C648.676 632.908 664.476 623.26 683.491 623.26C701.107 623.26 715.229 629.972 723.058 641.157L709.496 656.397C703.344 646.61 692.439 641.297 681.673 641.297C674.542 641.297 669.369 644.373 669.369 649.825C669.369 656.676 675.381 659.193 685.168 661.43L695.794 663.947C713.271 668.002 725.156 675.132 725.156 691.91C725.156 709.807 710.056 719.454 689.782 719.454ZM754.504 641.436H734.51V624.379H754.504V641.436ZM754.504 718.056H734.51V649.546H754.504V718.056ZM790.037 719.594C773.399 719.594 762.913 706.591 762.913 683.801C762.913 661.151 773.399 648.148 789.198 648.148C803.459 648.148 809.052 658.075 811.009 669.12V624.379H831.003V718.056H811.009V698.761C809.192 709.807 804.298 719.594 790.037 719.594ZM783.186 683.801C783.186 696.943 788.918 703.934 798.006 703.934C806.395 703.934 811.009 698.761 811.009 687.576V680.166C811.009 668.98 806.256 663.667 797.727 663.667C788.918 663.667 783.186 670.798 783.186 683.801ZM874.842 719.454C853.031 719.454 839.748 704.913 839.748 683.801C839.748 662.689 853.031 648.148 873.164 648.148C894.975 648.148 905.881 662.689 905.881 680.585C905.881 683.521 905.601 687.436 905.182 688.974H858.483C859.742 698.621 866.173 703.235 875.121 703.235C884.769 703.235 889.942 699.041 892.459 693.168L904.623 705.332C899.449 712.743 890.222 719.454 874.842 719.454ZM873.304 663.527C864.775 663.527 859.462 668.281 858.483 677.509H887.845C887.146 668.421 882.252 663.527 873.304 663.527ZM979.166 745.599C962.948 745.46 953.58 734.694 954.279 718.895C929.811 716.098 913.453 696.105 913.453 671.077C913.453 644.093 932.608 622.981 960.571 622.981C988.534 622.981 1007.69 644.093 1007.69 671.077C1007.69 695.965 991.61 715.679 967.422 718.895C968.261 726.025 972.735 728.821 977.908 728.821C987.416 728.821 994.127 720.992 997.622 714.001L1004.61 733.995C999.859 739.308 991.89 745.599 979.166 745.599ZM960.571 699.46C977.908 699.46 986.577 687.156 986.577 671.077C986.577 655.138 977.908 642.695 960.571 642.695C943.374 642.695 934.565 655.138 934.565 671.077C934.565 687.156 943.374 699.46 960.571 699.46ZM1038.6 719.454C1025.6 719.454 1017.49 711.484 1017.49 697.363V649.546H1037.48V690.372C1037.48 698.761 1039.72 703.934 1048.94 703.934C1058.45 703.934 1061.39 698.621 1061.39 687.436V649.546H1081.38V718.056H1061.39V698.901C1059.01 709.807 1052.44 719.454 1038.6 719.454ZM1125.11 719.454C1103.3 719.454 1090.01 704.913 1090.01 683.801C1090.01 662.689 1103.3 648.148 1123.43 648.148C1145.24 648.148 1156.15 662.689 1156.15 680.585C1156.15 683.521 1155.87 687.436 1155.45 688.974H1108.75C1110.01 698.621 1116.44 703.235 1125.39 703.235C1135.03 703.235 1140.21 699.041 1142.72 693.168L1154.89 705.332C1149.71 712.743 1140.49 719.454 1125.11 719.454ZM1123.57 663.527C1115.04 663.527 1109.73 668.281 1108.75 677.509H1138.11C1137.41 668.421 1132.52 663.527 1123.57 663.527ZM1194.66 719.454C1179.42 719.454 1165.85 713.861 1159.98 705.612L1169.21 692.05C1174.94 698.202 1184.87 704.214 1195.22 704.214C1200.67 704.214 1203.88 702.536 1203.88 698.901C1203.88 695.266 1199.97 693.867 1192.7 692.05L1183.47 689.813C1171.17 686.597 1162.22 681.703 1162.22 669.679C1162.22 656.257 1173.13 648.287 1189.9 648.287C1204.72 648.287 1215.49 654.719 1220.24 660.731L1211.29 674.153C1204.58 667.163 1196.19 663.388 1188.23 663.388C1183.33 663.388 1180.4 665.205 1180.4 668.561C1180.4 672.196 1183.33 673.594 1192.42 676.111L1200.11 678.208C1215.21 682.263 1221.78 688.135 1221.78 698.621C1221.78 711.904 1210.6 719.454 1194.66 719.454ZM1255.84 719.454C1240.73 719.454 1233.6 710.506 1233.6 697.782V664.786H1223.4V649.546H1233.6V641.436L1253.6 630.95V649.546H1272.61V664.786H1253.6V694.147C1253.6 699.74 1256.39 701.697 1260.31 701.697C1264.64 701.697 1268.42 698.202 1270.52 694.427L1276.25 710.785C1273.31 714.56 1266.32 719.454 1255.84 719.454Z" fill="#0A0A0A"/>
</svg>
