<svg width="253" height="242" viewBox="0 0 253 242" fill="none" xmlns="http://www.w3.org/2000/svg">
<path d="M32.003 242C2.86062 242.044 -11.0681 206.198 10.458 186.554L139.422 68.8626C159.899 50.176 192.822 64.712 192.809 92.4333L192.754 209.93C192.746 227.518 178.5 241.778 160.912 241.805L32.003 242Z" fill="#3B82F6"/>
<path d="M220.74 4.06045e-05C249.882 -0.0440328 263.811 35.8015 242.285 55.446L113.321 173.137C92.8442 191.824 59.9207 177.288 59.9336 149.567L59.9886 32.0702C59.9968 14.4824 74.2427 0.221595 91.8305 0.194996L220.74 4.06045e-05Z" fill="#E62C5A"/>
<path fill-rule="evenodd" clip-rule="evenodd" d="M139.42 68.8647C159.896 50.1783 192.82 64.7146 192.807 92.4357L192.803 100.605L113.32 173.141C92.8439 191.827 59.9214 177.291 59.9344 149.57L59.9373 141.399L139.42 68.8647Z" fill="#1D4ED8"/>
</svg>
