<svg width="253" height="242" viewBox="0 0 253 242" fill="none" xmlns="http://www.w3.org/2000/svg">
<path d="M31.9849 241.863C2.859 241.907 -11.0618 206.082 10.4521 186.448L139.343 68.8235C159.808 50.1476 192.713 64.6753 192.7 92.3808L192.645 209.811C192.637 227.389 178.399 241.641 160.821 241.668L31.9849 241.863Z" fill="#3B82F6"/>
<path d="M220.615 4.05815e-05C249.741 -0.0440078 263.661 35.7812 242.148 55.4146L113.256 173.039C92.7916 191.715 59.8867 177.187 59.8997 149.482L59.9545 32.0521C59.9628 14.4742 74.2006 0.221469 91.7785 0.194885L220.615 4.05815e-05Z" fill="#E62C5A"/>
<path d="M139.341 68.8259C159.805 50.1502 192.71 64.6775 192.697 92.3825L192.693 100.549L113.256 173.043C92.7912 191.718 59.8874 177.19 59.9004 149.485L59.9033 141.318L139.341 68.8259Z" fill="#1D4ED8"/>
</svg>
